# xmcd CD database file
#
# Track frame offsets:
#	150
#	25650
#	53249
#	62139
#	69912
#	95352
#	115491
#	146480
#	168074
#	190905
#
# Disc length: 2640 seconds
#
# Revision: 0
# Processed by: cddbd v1.5.1PL0 Copyright (c) Steve Scherf et al.
# Submitted via: CDex 1.51
#
DISCID=820a4e0a
DTITLE=Spinna B-ill - B-ILL ON THE STEREO LIVE AT RESTAURANT麻
DYEAR=2005
DGENRE=レゲエ
TTITLE0=我
TTITLE1=チルドレン
TTITLE2=SPINNA B-ILL
TTITLE3=B-ILLSTRUMENTAL
TTITLE4=まっすぐに
TTITLE5=水の中へ
TTITLE6=GET UP,STAND UP
TTITLE7=UNFINISHED
TTITLE8=ライオンの子
TTITLE9=????(BONUS TRACK@GREEN MASSIVE)
EXTD=YEAR: 2005
EXTT0=
EXTT1=
EXTT2=
EXTT3=
EXTT4=
EXTT5=
EXTT6=
EXTT7=
EXTT8=
EXTT9=
PLAYORDER=
